<svg xmlns="http://www.w3.org/2000/svg" xmlns:xlink="http://www.w3.org/1999/xlink" width="31" height="31" viewBox="0 0 31 31">
  <defs>
    <filter id="타원_444" x="0" y="0" width="31" height="31" filterUnits="userSpaceOnUse">
      <feOffset dy="3" input="SourceAlpha"/>
      <feGaussianBlur stdDeviation="1" result="blur"/>
      <feFlood flood-opacity="0.161"/>
      <feComposite operator="in" in2="blur"/>
      <feComposite in="SourceGraphic"/>
    </filter>
    <clipPath id="clip-path">
      <circle id="타원_448" data-name="타원 448" cx="10.5" cy="10.5" r="10.5" transform="translate(0.108 0.107)" fill="#fff" style="mix-blend-mode: soft-light;isolation: isolate"/>
    </clipPath>
  </defs>
  <g id="구성_요소_7_18" data-name="구성 요소 7 – 18" transform="translate(3)">
    <circle id="타원_445" data-name="타원 445" cx="12.5" cy="12.5" r="12.5" fill="#fff" style="mix-blend-mode: soft-light;isolation: isolate"/>
    <g transform="matrix(1, 0, 0, 1, -3, 0)" filter="url(#타원_444)" style="mix-blend-mode: soft-light;isolation: isolate">
      <g id="타원_444-2" data-name="타원 444" transform="translate(3)" fill="none" stroke="#fff" stroke-width="2">
        <circle cx="12.5" cy="12.5" r="12.5" stroke="none"/>
        <circle cx="12.5" cy="12.5" r="11.5" fill="none"/>
      </g>
    </g>
    <g id="마스크_그룹_22" data-name="마스크 그룹 22" transform="translate(1.893 1.893)" clip-path="url(#clip-path)">
      <path id="합치기_19" data-name="합치기 19" d="M-8780.893-184.894c0-4.508,2.237-8.319,5.313-9.566a4.5,4.5,0,0,1-2.313-3.934,4.5,4.5,0,0,1,4.5-4.5,4.5,4.5,0,0,1,4.5,4.5,4.5,4.5,0,0,1-2.312,3.934c3.076,1.248,5.313,5.058,5.313,9.566,0,5.525-3.358,10-7.5,10S-8780.893-179.369-8780.893-184.894Z" transform="translate(8784 207)" fill="#fff" opacity="0.78"/>
    </g>
  </g>
</svg>
